<svg width="60" height="60" viewBox="0 0 60 60" fill="none" xmlns="http://www.w3.org/2000/svg">
<path fill-rule="evenodd" clip-rule="evenodd" d="M36.5468 43.7499H51.3198V39.3181H36.5468V43.7499Z" fill="#DB0010"/>
<path fill-rule="evenodd" clip-rule="evenodd" d="M50.1393 47.2731L56.1748 40.8524L50.1393 35.3412V47.2731Z" fill="#DB0010"/>
<path fill-rule="evenodd" clip-rule="evenodd" d="M14.729 47.2731H47.3424V19.0369L38.3151 10.2272H14.729V47.2731ZM48.0242 48.6367H14.0472C13.6708 48.6367 13.3654 48.3319 13.3654 47.9549V9.54534C13.3654 9.1683 13.6708 8.86353 14.0472 8.86353H38.5926C38.7706 8.86353 38.9417 8.93307 39.0685 9.05716L48.5001 18.2617C48.6317 18.3906 48.706 18.5658 48.706 18.7499V47.9549C48.706 48.3319 48.4006 48.6367 48.0242 48.6367Z" fill="#333333"/>
<path fill-rule="evenodd" clip-rule="evenodd" d="M47.4562 19.5456H38.2517C37.8753 19.5456 37.5699 19.2408 37.5699 18.8638V10.6819C37.5699 10.3049 37.8753 10.0001 38.2517 10.0001C38.6281 10.0001 38.9335 10.3049 38.9335 10.6819V18.1819H47.4562C47.8326 18.1819 48.1381 18.4867 48.1381 18.8638C48.1381 19.2408 47.8326 19.5456 47.4562 19.5456Z" fill="#333333"/>
<path fill-rule="evenodd" clip-rule="evenodd" d="M28.0401 21.1969H19.4185C19.0421 21.1969 18.7367 20.8921 18.7367 20.5151C18.7367 20.138 19.0421 19.8333 19.4185 19.8333H28.0401C28.4165 19.8333 28.7219 20.138 28.7219 20.5151C28.7219 20.8921 28.4165 21.1969 28.0401 21.1969Z" fill="#333333"/>
<path fill-rule="evenodd" clip-rule="evenodd" d="M34.2854 28.864H19.4183C19.042 28.864 18.7365 28.5592 18.7365 28.1822C18.7365 27.8051 19.042 27.5004 19.4183 27.5004H34.2854C34.6617 27.5004 34.9672 27.8051 34.9672 28.1822C34.9672 28.5592 34.6617 28.864 34.2854 28.864Z" fill="#333333"/>
<path fill-rule="evenodd" clip-rule="evenodd" d="M40.9789 28.864H37.456C37.0796 28.864 36.7742 28.5592 36.7742 28.1822C36.7742 27.8051 37.0796 27.5004 37.456 27.5004H40.9789C41.3553 27.5004 41.6608 27.8051 41.6608 28.1822C41.6608 28.5592 41.3553 28.864 40.9789 28.864Z" fill="#333333"/>
<path fill-rule="evenodd" clip-rule="evenodd" d="M40.979 33.0682H19.4185C19.0421 33.0682 18.7367 32.7634 18.7367 32.3863C18.7367 32.0093 19.0421 31.7045 19.4185 31.7045H40.979C41.3553 31.7045 41.6608 32.0093 41.6608 32.3863C41.6608 32.7634 41.3553 33.0682 40.979 33.0682Z" fill="#333333"/>
<path fill-rule="evenodd" clip-rule="evenodd" d="M24.149 37.159H19.4185C19.0421 37.159 18.7367 36.8543 18.7367 36.4772C18.7367 36.1002 19.0421 35.7954 19.4185 35.7954H24.149C24.5253 35.7954 24.8308 36.1002 24.8308 36.4772C24.8308 36.8543 24.5253 37.159 24.149 37.159Z" fill="#333333"/>
<path fill-rule="evenodd" clip-rule="evenodd" d="M10.2274 34.4318C9.85105 34.4318 9.54559 34.127 9.54559 33.75V20.2275C9.54559 19.8504 9.85105 19.5457 10.2274 19.5457C10.6038 19.5457 10.9092 19.8504 10.9092 20.2275V33.75C10.9092 34.127 10.6038 34.4318 10.2274 34.4318Z" fill="#333333"/>
<path fill-rule="evenodd" clip-rule="evenodd" d="M10.2274 18.1819C9.85105 18.1819 9.54559 17.8771 9.54559 17.5001V14.091C9.54559 13.714 9.85105 13.4092 10.2274 13.4092C10.6038 13.4092 10.9092 13.714 10.9092 14.091V17.5001C10.9092 17.8771 10.6038 18.1819 10.2274 18.1819Z" fill="#333333"/>
<path fill-rule="evenodd" clip-rule="evenodd" d="M40.7316 50.7954C40.7316 51.2509 40.3628 51.6198 39.908 51.6198C39.4532 51.6198 39.0837 51.2509 39.0837 50.7954C39.0837 50.3407 39.4532 49.9718 39.908 49.9718C40.3628 49.9718 40.7316 50.3407 40.7316 50.7954Z" fill="#333333"/>
<path fill-rule="evenodd" clip-rule="evenodd" d="M36.8881 51.4772H10.2269C9.85056 51.4772 9.5451 51.1724 9.5451 50.7954V36.0231C9.5451 35.6461 9.85056 35.3413 10.2269 35.3413C10.604 35.3413 10.9087 35.6461 10.9087 36.0231V50.1136H36.8881C37.2644 50.1136 37.5699 50.4184 37.5699 50.7954C37.5699 51.1724 37.2644 51.4772 36.8881 51.4772Z" fill="#333333"/>
</svg>
