<svg width="60" height="60" viewBox="0 0 60 60" fill="none" xmlns="http://www.w3.org/2000/svg">
<path fill-rule="evenodd" clip-rule="evenodd" d="M38.8623 43.752C36.9151 43.752 35.3363 42.1732 35.3363 40.2259C35.3363 38.2782 36.9151 36.6999 38.8623 36.6999C40.8095 36.6999 42.3883 38.2782 42.3883 40.2259C42.3883 42.1732 40.8095 43.752 38.8623 43.752ZM38.8623 34.0909C35.4743 34.0909 32.7273 36.838 32.7273 40.2259C32.7273 43.6139 35.4743 46.3609 38.8623 46.3609C42.2509 46.3609 44.9973 43.6139 44.9973 40.2259C44.9973 36.838 42.2509 34.0909 38.8623 34.0909Z" fill="#DB0010"/>
<path fill-rule="evenodd" clip-rule="evenodd" d="M23.8623 30.117C21.9143 30.117 20.3349 28.5376 20.3349 26.5896C20.3349 24.641 21.9143 23.0622 23.8623 23.0622C25.8103 23.0622 27.3897 24.641 27.3897 26.5896C27.3897 28.5376 25.8103 30.117 23.8623 30.117ZM23.8623 20.4546C20.4737 20.4546 17.7273 23.2016 17.7273 26.5896C17.7273 29.9782 20.4737 32.7246 23.8623 32.7246C27.2502 32.7246 29.9973 29.9782 29.9973 26.5896C29.9973 23.2016 27.2502 20.4546 23.8623 20.4546Z" fill="#DB0010"/>
<path fill-rule="evenodd" clip-rule="evenodd" d="M24.9762 21.221C24.9762 21.6444 24.6332 21.9873 24.2098 21.9873C23.7864 21.9873 23.4434 21.6444 23.4434 21.221C23.4434 20.7975 23.7864 20.4546 24.2098 20.4546C24.6332 20.4546 24.9762 20.7975 24.9762 21.221ZM17.4695 26.0064C17.387 26.0064 17.3038 25.992 17.2227 25.96C16.8715 25.823 16.6977 25.4282 16.834 25.0777C17.4374 23.5259 18.5829 22.2455 20.0597 21.4736C20.4736 21.2561 20.9093 21.0809 21.3545 20.9534C21.7172 20.8505 22.0943 21.0584 22.1979 21.4198C22.3022 21.7825 22.0929 22.1595 21.7309 22.2639C21.3749 22.3661 21.0252 22.5066 20.6924 22.6811C19.5074 23.3009 18.589 24.3277 18.1049 25.5714C17.9999 25.8414 17.7422 26.0064 17.4695 26.0064ZM18.962 32.7453C18.7922 32.7453 18.6224 32.6826 18.4909 32.5565C17.9502 32.039 17.4995 31.4383 17.1504 30.7715C16.5859 29.6928 16.3165 28.4833 16.3704 27.2737C16.3874 26.898 16.7099 26.5933 17.0822 26.6233C17.4586 26.6396 17.7497 26.9587 17.7327 27.3344C17.689 28.304 17.9059 29.2742 18.3586 30.1394C18.6388 30.6746 19.0002 31.1567 19.4331 31.5705C19.7052 31.831 19.7147 32.2633 19.4543 32.5346C19.3206 32.6744 19.1413 32.7453 18.962 32.7453ZM23.255 34.4671C22.3986 34.4671 21.5402 34.3076 20.7248 33.9857C20.3743 33.8473 20.2025 33.4512 20.3409 33.1007C20.4793 32.751 20.8748 32.5798 21.2245 32.7169C22.7204 33.308 24.3936 33.2187 25.8173 32.4728C26.8543 31.9301 27.6779 31.0914 28.1982 30.0469C28.5923 29.2567 28.7934 28.3751 28.7811 27.4962C28.7695 26.6269 28.5568 25.7917 28.1504 25.0144C27.8927 24.5214 27.5661 24.0748 27.1802 23.6855C26.915 23.4176 26.917 22.986 27.1843 22.7207C27.4516 22.4562 27.8839 22.4576 28.1484 22.7248C28.6304 23.211 29.0375 23.7687 29.3586 24.3817C29.8652 25.3512 30.1298 26.3923 30.1448 27.4778C30.1598 28.5721 29.9089 29.6712 29.4193 30.6551C28.7695 31.958 27.7427 33.0039 26.45 33.681C25.4518 34.2032 24.3548 34.4664 23.255 34.4671Z" fill="#333333"/>
<path fill-rule="evenodd" clip-rule="evenodd" d="M10.2959 50.8727L13.6859 15.5457H45.5377L49.5891 50.8727H10.2959ZM22.9668 11.5864C22.9668 9.29068 24.3959 7.32568 26.4093 6.52454C25.0205 7.77227 24.1402 9.57704 24.1402 11.5864V14.182H22.9668V11.5864ZM25.5039 14.182V11.5864C25.5039 9.01863 27.2909 6.86545 29.6855 6.29136C32.0793 6.86545 33.8664 9.01863 33.8664 11.5864V14.182H25.5039ZM36.4041 11.5864V14.182H35.23V11.5864C35.23 9.57636 34.3498 7.77227 32.9609 6.52386C34.9743 7.32568 36.4041 9.29068 36.4041 11.5864ZM46.823 14.7854C46.7834 14.4411 46.4923 14.182 46.1459 14.182H37.7677V11.5864C37.7677 7.82954 34.7112 4.77295 30.9537 4.77295C30.52 4.77295 30.0966 4.81795 29.6855 4.89568C29.2737 4.81795 28.8502 4.77295 28.4166 4.77295C24.6591 4.77295 21.6032 7.82954 21.6032 11.5864V14.182H13.0662C12.715 14.182 12.4212 14.4486 12.3877 14.7984L8.86684 51.4891C8.84843 51.6807 8.91184 51.8709 9.0407 52.0134C9.17025 52.1552 9.35366 52.2364 9.54525 52.2364H50.3534C50.5484 52.2364 50.7332 52.1532 50.8627 52.0086C50.9923 51.8634 51.053 51.6698 51.0312 51.4768L46.823 14.7854Z" fill="#333333"/>
<path fill-rule="evenodd" clip-rule="evenodd" d="M38.2534 47.8687C37.0357 47.8687 35.8384 47.5462 34.7918 46.9373C34.2811 46.6393 33.81 46.2773 33.3914 45.8607C32.0843 44.5591 31.3636 42.8253 31.3636 40.9796C31.3636 40.5112 31.4107 40.0441 31.5041 39.5907C31.5791 39.2225 31.9411 38.9859 32.3086 39.0603C32.6775 39.1359 32.9148 39.4966 32.8398 39.8655C32.7648 40.2282 32.7273 40.6032 32.7273 40.9796C32.7273 42.4598 33.3048 43.85 34.3541 44.8946C34.6896 45.2293 35.068 45.5205 35.4777 45.7584C36.3171 46.2466 37.2764 46.505 38.2534 46.505C39.5802 46.505 40.8634 46.0278 41.8664 45.1605C43.0821 44.1091 43.7789 42.5846 43.7789 40.9796C43.7789 39.8082 43.4175 38.6893 42.7336 37.7437C42.2168 37.0298 41.5296 36.4414 40.7448 36.0453C39.4759 35.4023 37.98 35.2789 36.6252 35.6962C36.2673 35.8059 35.8834 35.6048 35.773 35.2448C35.6625 34.8855 35.8643 34.5037 36.2243 34.3925C37.9146 33.8737 39.7766 34.0278 41.3605 34.8282C42.3382 35.3232 43.1952 36.0548 43.8389 36.9453C44.6918 38.1248 45.1425 39.5198 45.1425 40.9796C45.1425 42.9807 44.2739 44.8809 42.7582 46.1921C41.5077 47.2734 39.9082 47.8687 38.2534 47.8687ZM33.3269 37.8824C33.1816 37.8824 33.0357 37.8367 32.9123 37.7413C32.613 37.5122 32.5571 37.084 32.7869 36.7854C33.2607 36.1676 33.8307 35.6385 34.4819 35.2124C34.7969 35.0072 35.2196 35.0951 35.4255 35.4095C35.6321 35.7245 35.5435 36.1472 35.2291 36.3538C34.7062 36.6954 34.2487 37.1201 33.8676 37.6158C33.7339 37.7904 33.5314 37.8824 33.3269 37.8824Z" fill="#333333"/>
<path fill-rule="evenodd" clip-rule="evenodd" d="M18.3849 46.8937C18.2103 46.8937 18.0358 46.8269 17.9028 46.6939C17.6362 46.4273 17.6362 45.9964 17.9028 45.7298L38.3594 25.2732C38.626 25.0067 39.0576 25.0067 39.3235 25.2732C39.5901 25.5398 39.5901 25.9707 39.3235 26.2373L18.8669 46.6939C18.734 46.8269 18.5594 46.8937 18.3849 46.8937Z" fill="#333333"/>
</svg>
