<svg width="60" height="60" viewBox="0 0 60 60" fill="none" xmlns="http://www.w3.org/2000/svg">
<path fill-rule="evenodd" clip-rule="evenodd" d="M47.8016 31.08C43.8102 32.8834 39.0047 25.875 39.0047 25.875L39.5911 20.1859C39.5911 20.1859 37.5975 16.5259 34.9132 13.9786C32.2282 11.4314 33.1063 8.71908 35.4593 9.0934C37.8122 9.4684 43.6268 11.3127 47.5834 18.8618C50.4109 24.257 47.8016 31.08 47.8016 31.08ZM29.709 31.4509C29.7465 27.9832 36.6602 30.4868 38.8215 30.6573C40.9829 30.8277 43.9897 33.3845 42.5838 35.6004C41.1786 37.8164 40.0693 36.4527 36.1536 37.4148C32.2386 38.3761 29.709 31.4509 29.709 31.4509Z" fill="#DB0010"/>
<path fill-rule="evenodd" clip-rule="evenodd" d="M55.2114 38.2385C55.2114 38.6933 54.8425 39.0621 54.3877 39.0621C53.933 39.0621 53.5634 38.6933 53.5634 38.2385C53.5634 37.7837 53.933 37.4149 54.3877 37.4149C54.8425 37.4149 55.2114 37.7837 55.2114 38.2385Z" fill="#333333"/>
<path fill-rule="evenodd" clip-rule="evenodd" d="M30.857 11.8353C21.9749 11.8353 14.749 19.0612 14.749 27.9433C14.749 36.8253 21.9749 44.0512 30.857 44.0512C39.739 44.0512 46.9649 36.8253 46.9649 27.9433C46.9649 19.0612 39.739 11.8353 30.857 11.8353ZM30.857 45.4149C21.2229 45.4149 13.3854 37.5774 13.3854 27.9433C13.3854 18.3092 21.2229 10.4717 30.857 10.4717C40.4911 10.4717 48.3286 18.3092 48.3286 27.9433C48.3286 37.5774 40.4911 45.4149 30.857 45.4149Z" fill="#333333"/>
<path fill-rule="evenodd" clip-rule="evenodd" d="M30.8569 50.7972C21.6783 50.7972 13.4222 45.3406 9.82284 36.8956C9.67557 36.5492 9.83648 36.1483 10.1828 36.0011C10.5292 35.8538 10.9294 36.014 11.0774 36.361C14.4619 44.3022 22.2258 49.4335 30.8569 49.4335C42.7069 49.4335 52.3478 39.7933 52.3478 27.9433C52.3478 19.7547 47.5819 12.1572 40.2067 8.58787C39.8678 8.42423 39.726 8.01582 39.8903 7.67696C40.0547 7.33741 40.4638 7.19628 40.8006 7.36059C48.6435 11.1556 53.7115 19.2351 53.7115 27.9433C53.7115 40.5447 43.459 50.7972 30.8569 50.7972Z" fill="#333333"/>
<path fill-rule="evenodd" clip-rule="evenodd" d="M24.0089 52.6285C23.942 52.6285 23.8739 52.6183 23.8064 52.5978C22.0214 52.0435 20.2929 51.2908 18.6689 50.3594C18.3423 50.1719 18.2298 49.7553 18.4166 49.4287C18.6041 49.1022 19.0207 48.989 19.3479 49.1765C20.8848 50.0581 22.5211 50.7706 24.2107 51.2949C24.57 51.4067 24.7711 51.7892 24.66 52.1485C24.5693 52.441 24.2993 52.6285 24.0089 52.6285Z" fill="#333333"/>
<path fill-rule="evenodd" clip-rule="evenodd" d="M43.1287 50.8447C42.8846 50.8447 42.648 50.7132 42.526 50.4827C42.3494 50.15 42.4755 49.7368 42.8083 49.5609C46.6258 47.5352 49.8467 44.5195 52.1219 40.8404C52.3203 40.5193 52.741 40.4211 53.0601 40.6188C53.3805 40.8166 53.4801 41.2373 53.2817 41.557C50.8789 45.442 47.478 48.6261 43.4478 50.765C43.3455 50.8188 43.2364 50.8447 43.1287 50.8447Z" fill="#333333"/>
<path fill-rule="evenodd" clip-rule="evenodd" d="M40.2397 14.6998C40.0651 14.6998 39.8906 14.633 39.7576 14.5C39.491 14.2334 39.491 13.8025 39.7576 13.5359L45.534 7.75955C45.8006 7.49364 46.2322 7.49364 46.4981 7.75955C46.7647 8.02614 46.7647 8.45773 46.4981 8.72364L40.7217 14.5C40.5888 14.633 40.4142 14.6998 40.2397 14.6998Z" fill="#333333"/>
<path fill-rule="evenodd" clip-rule="evenodd" d="M11.1758 45.6559C11.0012 45.6559 10.8267 45.5891 10.6937 45.4561C10.4271 45.1896 10.4271 44.7586 10.6937 44.4921L16.6051 38.58C16.8717 38.3134 17.3033 38.3134 17.5692 38.58C17.8358 38.8466 17.8358 39.2782 17.5692 39.5441L11.6578 45.4561C11.5249 45.5891 11.3503 45.6559 11.1758 45.6559Z" fill="#333333"/>
<path fill-rule="evenodd" clip-rule="evenodd" d="M48.1492 4.09093C46.9676 4.09093 46.0062 5.05229 46.0062 6.23389C46.0062 7.41548 46.9676 8.37684 48.1492 8.37684C49.3308 8.37684 50.2921 7.41548 50.2921 6.23389C50.2921 5.05229 49.3308 4.09093 48.1492 4.09093ZM48.1492 9.74048C46.2155 9.74048 44.6426 8.16752 44.6426 6.23389C44.6426 4.30025 46.2155 2.72729 48.1492 2.72729C50.0828 2.72729 51.6558 4.30025 51.6558 6.23389C51.6558 8.16752 50.0828 9.74048 48.1492 9.74048Z" fill="#333333"/>
<path fill-rule="evenodd" clip-rule="evenodd" d="M8.96124 44.5496C7.77965 44.5496 6.81829 45.511 6.81829 46.6926C6.81829 47.8742 7.77965 48.8355 8.96124 48.8355C10.1428 48.8355 11.1042 47.8742 11.1042 46.6926C11.1042 45.511 10.1428 44.5496 8.96124 44.5496ZM8.96124 50.1992C7.02761 50.1992 5.45465 48.6262 5.45465 46.6926C5.45465 44.7589 7.02761 43.186 8.96124 43.186C10.8949 43.186 12.4678 44.7589 12.4678 46.6926C12.4678 48.6262 10.8949 50.1992 8.96124 50.1992Z" fill="#333333"/>
<path fill-rule="evenodd" clip-rule="evenodd" d="M23.8698 58.3281H38.1396V55.3738H23.8698V58.3281ZM38.8214 59.6918H23.188C22.8116 59.6918 22.5062 59.3863 22.5062 59.01V54.692C22.5062 54.315 22.8116 54.0102 23.188 54.0102H38.8214C39.1978 54.0102 39.5032 54.315 39.5032 54.692V59.01C39.5032 59.3863 39.1978 59.6918 38.8214 59.6918Z" fill="#333333"/>
<path fill-rule="evenodd" clip-rule="evenodd" d="M30.8569 55.0326C30.4806 55.0326 30.1751 54.7271 30.1751 54.3507V50.1153C30.1751 49.7389 30.4806 49.4335 30.8569 49.4335C31.2333 49.4335 31.5387 49.7389 31.5387 50.1153V54.3507C31.5387 54.7271 31.2333 55.0326 30.8569 55.0326Z" fill="#333333"/>
</svg>
