<svg width="60" height="60" viewBox="0 0 60 60" fill="none" xmlns="http://www.w3.org/2000/svg">
<path fill-rule="evenodd" clip-rule="evenodd" d="M7.5 39.4146H49.453V34.8771H7.5V39.4146Z" fill="#DB0010"/>
<path fill-rule="evenodd" clip-rule="evenodd" d="M31.4186 37.4231C31.4186 37.8267 31.0913 38.154 30.6876 38.154C30.2833 38.154 29.9561 37.8267 29.9561 37.4231C29.9561 37.0188 30.2833 36.6922 30.6876 36.6922C31.0913 36.6922 31.4186 37.0188 31.4186 37.4231Z" fill="#333333"/>
<path fill-rule="evenodd" clip-rule="evenodd" d="M49.9838 35.3657H9.1463C8.76993 35.3657 8.46448 35.0609 8.46448 34.6839C8.46448 34.3068 8.76993 34.0021 9.1463 34.0021H49.9838C50.3602 34.0021 50.6656 34.3068 50.6656 34.6839C50.6656 35.0609 50.3602 35.3657 49.9838 35.3657Z" fill="#333333"/>
<path fill-rule="evenodd" clip-rule="evenodd" d="M40.9078 43.9284C38.893 43.9284 37.2539 45.5675 37.2539 47.5823C37.2539 49.597 38.893 51.2368 40.9078 51.2368C42.9225 51.2368 44.5616 49.597 44.5616 47.5823C44.5616 45.5675 42.9225 43.9284 40.9078 43.9284ZM40.9078 52.6004C38.1409 52.6004 35.8903 50.3491 35.8903 47.5823C35.8903 44.8161 38.1409 42.5648 40.9078 42.5648C43.6746 42.5648 45.9253 44.8161 45.9253 47.5823C45.9253 50.3491 43.6746 52.6004 40.9078 52.6004Z" fill="#333333"/>
<path fill-rule="evenodd" clip-rule="evenodd" d="M17.9167 43.9284C15.902 43.9284 14.2629 45.5675 14.2629 47.5823C14.2629 49.597 15.902 51.2368 17.9167 51.2368C19.9322 51.2368 21.5713 49.597 21.5713 47.5823C21.5713 45.5675 19.9322 43.9284 17.9167 43.9284ZM17.9167 52.6004C15.1499 52.6004 12.8992 50.3491 12.8992 47.5823C12.8992 44.8161 15.1499 42.5648 17.9167 42.5648C20.6835 42.5648 22.9349 44.8161 22.9349 47.5823C22.9349 50.3491 20.6835 52.6004 17.9167 52.6004Z" fill="#333333"/>
<path fill-rule="evenodd" clip-rule="evenodd" d="M49.9838 48.3822H45.2438C44.8674 48.3822 44.562 48.0774 44.562 47.7004C44.562 47.3233 44.8674 47.0185 45.2438 47.0185H49.302V22.349H9.82811V46.9006H13.5808C13.9572 46.9006 14.2627 47.2054 14.2627 47.5824C14.2627 47.9594 13.9572 48.2642 13.5808 48.2642H9.1463C8.76993 48.2642 8.46448 47.9594 8.46448 47.5824V21.6672C8.46448 21.2908 8.76993 20.9854 9.1463 20.9854H49.9838C50.3602 20.9854 50.6656 21.2908 50.6656 21.6672V47.7004C50.6656 48.0774 50.3602 48.3822 49.9838 48.3822Z" fill="#333333"/>
<path fill-rule="evenodd" clip-rule="evenodd" d="M36.5718 48.2643H22.2529C21.8766 48.2643 21.5711 47.9595 21.5711 47.5825C21.5711 47.2054 21.8766 46.9006 22.2529 46.9006H36.5718C36.9482 46.9006 37.2536 47.2054 37.2536 47.5825C37.2536 47.9595 36.9482 48.2643 36.5718 48.2643Z" fill="#333333"/>
<path fill-rule="evenodd" clip-rule="evenodd" d="M21.0428 34.6512C20.6664 34.6512 20.361 34.3464 20.361 33.9694V21.6674C20.361 21.2903 20.6664 20.9855 21.0428 20.9855C21.4191 20.9855 21.7246 21.2903 21.7246 21.6674V33.9694C21.7246 34.3464 21.4191 34.6512 21.0428 34.6512Z" fill="#333333"/>
<path fill-rule="evenodd" clip-rule="evenodd" d="M39.7984 34.6512C39.422 34.6512 39.1166 34.3464 39.1166 33.9694V21.6674C39.1166 21.2903 39.422 20.9855 39.7984 20.9855C40.1748 20.9855 40.4802 21.2903 40.4802 21.6674V33.9694C40.4802 34.3464 40.1748 34.6512 39.7984 34.6512Z" fill="#333333"/>
<path fill-rule="evenodd" clip-rule="evenodd" d="M35.326 22.3492C34.9497 22.3492 34.6442 22.0444 34.6442 21.6674V19.3744H24.8144V21.6674C24.8144 22.0444 24.5097 22.3492 24.1326 22.3492C23.7563 22.3492 23.4508 22.0444 23.4508 21.6674V18.6926C23.4508 18.3156 23.7563 18.0108 24.1326 18.0108H35.326C35.7024 18.0108 36.0079 18.3156 36.0079 18.6926V21.6674C36.0079 22.0444 35.7024 22.3492 35.326 22.3492Z" fill="#333333"/>
<path fill-rule="evenodd" clip-rule="evenodd" d="M32.7553 19.0373C32.5473 19.0373 32.3421 18.9426 32.2078 18.7632L25.1332 9.26824C24.9082 8.96619 24.9709 8.53937 25.2723 8.31437C25.575 8.08937 26.0019 8.1521 26.2269 8.45346L33.3014 17.9478C33.5264 18.2498 33.4644 18.6773 33.1623 18.9023C33.0396 18.9937 32.8971 19.0373 32.7553 19.0373Z" fill="#333333"/>
<path fill-rule="evenodd" clip-rule="evenodd" d="M27.9149 19.0373C27.7069 19.0373 27.5017 18.9426 27.3674 18.7632L20.2928 9.26824C20.0678 8.96619 20.1306 8.53937 20.4319 8.31437C20.7346 8.08937 21.1615 8.1521 21.3865 8.45346L28.461 17.9478C28.686 18.2498 28.624 18.6773 28.3219 18.9023C28.1992 18.9937 28.0567 19.0373 27.9149 19.0373Z" fill="#333333"/>
<path fill-rule="evenodd" clip-rule="evenodd" d="M50.5208 8.86364H8.40216C8.02579 8.86364 7.72034 8.55818 7.72034 8.18182C7.72034 7.80545 8.02579 7.5 8.40216 7.5H50.5208C50.8972 7.5 51.2026 7.80545 51.2026 8.18182C51.2026 8.55818 50.8972 8.86364 50.5208 8.86364Z" fill="#333333"/>
<path fill-rule="evenodd" clip-rule="evenodd" d="M49.9838 37.9791H33.3597C32.9826 37.9791 32.6779 37.6743 32.6779 37.2973C32.6779 36.9203 32.9826 36.6155 33.3597 36.6155H49.9838C50.3601 36.6155 50.6656 36.9203 50.6656 37.2973C50.6656 37.6743 50.3601 37.9791 49.9838 37.9791Z" fill="#333333"/>
<path fill-rule="evenodd" clip-rule="evenodd" d="M17.8558 50.7852C17.4794 50.7852 17.174 50.4804 17.174 50.1034C17.174 49.7284 17.4767 49.4243 17.8517 49.4215C18.0201 49.4181 19.4546 49.3424 19.7839 47.6795C19.8569 47.3099 20.2162 47.0665 20.5851 47.1436C20.954 47.2165 21.1946 47.5752 21.1217 47.9447C20.6764 50.1913 18.7905 50.7852 17.8558 50.7852Z" fill="#333333"/>
<path fill-rule="evenodd" clip-rule="evenodd" d="M38.4392 48.494H38.4317C38.0553 48.4899 37.7533 48.1817 37.7574 47.8047C37.7819 45.5145 39.526 44.5845 40.4444 44.412C40.816 44.3492 41.1712 44.5865 41.2401 44.9574C41.309 45.3256 41.0676 45.6801 40.7001 45.7517C40.5378 45.7845 39.1387 46.122 39.121 47.8197C39.1169 48.194 38.8121 48.494 38.4392 48.494Z" fill="#333333"/>
<path fill-rule="evenodd" clip-rule="evenodd" d="M52.0043 48.3821H49.9841C49.607 48.3821 49.3022 48.0774 49.3022 47.7003C49.3022 47.3233 49.607 47.0185 49.9841 47.0185H51.3225V44.1446H49.9841C49.607 44.1446 49.3022 43.8399 49.3022 43.4628C49.3022 43.0858 49.607 42.781 49.9841 42.781H52.0043C52.3807 42.781 52.6861 43.0858 52.6861 43.4628V47.7003C52.6861 48.0774 52.3807 48.3821 52.0043 48.3821Z" fill="#333333"/>
<path fill-rule="evenodd" clip-rule="evenodd" d="M11.769 34.6512C11.3927 34.6512 11.0872 34.3464 11.0872 33.9694V26.1039C11.0872 25.7269 11.3927 25.4221 11.769 25.4221C12.1454 25.4221 12.4509 25.7269 12.4509 26.1039V33.9694C12.4509 34.3464 12.1454 34.6512 11.769 34.6512Z" fill="#333333"/>
<path fill-rule="evenodd" clip-rule="evenodd" d="M24.133 35.0295C23.7566 35.0295 23.4512 34.7247 23.4512 34.3476V31.9272C23.4512 31.5501 23.7566 31.2454 24.133 31.2454C24.5094 31.2454 24.8148 31.5501 24.8148 31.9272V34.3476C24.8148 34.7247 24.5094 35.0295 24.133 35.0295Z" fill="#333333"/>
<path fill-rule="evenodd" clip-rule="evenodd" d="M7.10218 54.8864C7.10218 55.3418 6.73331 55.7107 6.27854 55.7107C5.82377 55.7107 5.45422 55.3418 5.45422 54.8864C5.45422 54.4316 5.82377 54.0627 6.27854 54.0627C6.73331 54.0627 7.10218 54.4316 7.10218 54.8864ZM56.1248 55.7267H35.5114C35.1351 55.7267 34.8296 55.4219 34.8296 55.0448C34.8296 54.6678 35.1351 54.363 35.5114 54.363H56.1248C56.5012 54.363 56.8067 54.6678 56.8067 55.0448C56.8067 55.4219 56.5012 55.7267 56.1248 55.7267ZM32.4417 55.7267H22.0944C21.7174 55.7267 21.4126 55.4219 21.4126 55.0448C21.4126 54.6678 21.7174 54.363 22.0944 54.363H32.4417C32.818 54.363 33.1235 54.6678 33.1235 55.0448C33.1235 55.4219 32.818 55.7267 32.4417 55.7267ZM15.0347 55.7267H9.65102C9.27466 55.7267 8.9692 55.4219 8.9692 55.0448C8.9692 54.6678 9.27466 54.363 9.65102 54.363H15.0347C15.411 54.363 15.7165 54.6678 15.7165 55.0448C15.7165 55.4219 15.411 55.7267 15.0347 55.7267Z" fill="#333333"/>
</svg>
