<svg width="35" height="35" viewBox="0 0 35 35" fill="none" xmlns="http://www.w3.org/2000/svg">
<path d="M8.8375 16.2531C9.1347 14.1674 10.1745 12.259 11.7658 10.8783C13.3571 9.49763 15.3932 8.73749 17.5 8.73749C19.6068 8.73749 21.6429 9.49763 23.2342 10.8783C24.8255 12.259 25.8653 14.1674 26.1625 16.2531C26.1853 16.3966 26.1794 16.5431 26.1449 16.6842C26.1105 16.8253 26.0484 16.9581 25.9621 17.0749C25.8758 17.1917 25.7671 17.2902 25.6423 17.3645C25.5176 17.4389 25.3793 17.4877 25.2355 17.508C25.0917 17.5283 24.9453 17.5198 24.8048 17.483C24.6643 17.4461 24.5326 17.3817 24.4173 17.2934C24.302 17.2051 24.2055 17.0947 24.1333 16.9687C24.0611 16.8427 24.0147 16.7035 23.9969 16.5594C23.774 14.9951 22.9942 13.5638 21.8006 12.5283C20.6071 11.4928 19.0801 10.9227 17.5 10.9227C15.9199 10.9227 14.3929 11.4928 13.1994 12.5283C12.0058 13.5638 11.226 14.9951 11.0031 16.5594C10.9853 16.7035 10.9389 16.8427 10.8667 16.9687C10.7945 17.0947 10.698 17.2051 10.5827 17.2934C10.4674 17.3817 10.3357 17.4461 10.1952 17.483C10.0547 17.5198 9.90831 17.5283 9.76451 17.508C9.62072 17.4877 9.48241 17.4389 9.35766 17.3645C9.23291 17.2902 9.12422 17.1917 9.03793 17.0749C8.95164 16.9581 8.88947 16.8253 8.85506 16.6842C8.82065 16.5431 8.81468 16.3966 8.8375 16.2531ZM8.75 20.7813C8.75 20.4912 8.86523 20.213 9.07035 20.0079C9.27547 19.8028 9.55367 19.6875 9.84375 19.6875H25.1562C25.4463 19.6875 25.7245 19.8028 25.9296 20.0079C26.1348 20.213 26.25 20.4912 26.25 20.7813V29.5313C26.25 29.8214 26.1348 30.0996 25.9296 30.3047C25.7245 30.5098 25.4463 30.625 25.1562 30.625H9.84375C9.55367 30.625 9.27547 30.5098 9.07035 30.3047C8.86523 30.0996 8.75 29.8214 8.75 29.5313V20.7813ZM10.9375 21.875V28.4375H24.0625V21.875H21.875V22.9688C21.875 23.2589 21.7598 23.5371 21.5546 23.7422C21.3495 23.9473 21.0713 24.0625 20.7812 24.0625C20.4912 24.0625 20.213 23.9473 20.0079 23.7422C19.8027 23.5371 19.6875 23.2589 19.6875 22.9688V21.875H10.9375Z" fill="white"/>
<path d="M13.125 5.12094V4.375C13.125 3.21468 13.5859 2.10188 14.4064 1.28141C15.2269 0.460936 16.3397 0 17.5 0C18.6603 0 19.7731 0.460936 20.5936 1.28141C21.4141 2.10188 21.875 3.21468 21.875 4.375V5.12094C26.9719 6.92344 30.625 11.7863 30.625 17.5V29.5312C30.625 30.9817 30.0488 32.3727 29.0232 33.3982C27.9977 34.4238 26.6067 35 25.1562 35H9.84375C8.39335 35 7.00235 34.4238 5.97676 33.3982C4.95117 32.3727 4.375 30.9817 4.375 29.5312V17.5C4.37403 14.785 5.21503 12.1366 6.78213 9.9195C8.34923 7.70245 10.5653 6.02593 13.125 5.12094ZM15.3125 4.375V4.55656C16.7606 4.3118 18.2394 4.3118 19.6875 4.55656V4.375C19.6875 3.79484 19.457 3.23844 19.0468 2.8282C18.6366 2.41797 18.0802 2.1875 17.5 2.1875C16.9198 2.1875 16.3634 2.41797 15.9532 2.8282C15.543 3.23844 15.3125 3.79484 15.3125 4.375ZM17.5 6.5625C14.5992 6.5625 11.8172 7.71484 9.76602 9.76602C7.71484 11.8172 6.5625 14.5992 6.5625 17.5V29.5312C6.5625 30.4015 6.9082 31.2361 7.52356 31.8514C8.13891 32.4668 8.97351 32.8125 9.84375 32.8125H25.1562C26.0265 32.8125 26.8611 32.4668 27.4764 31.8514C28.0918 31.2361 28.4375 30.4015 28.4375 29.5312V17.5C28.4375 14.5992 27.2852 11.8172 25.234 9.76602C23.1828 7.71484 20.4008 6.5625 17.5 6.5625Z" fill="white"/>
</svg>
