<svg width="35" height="35" viewBox="0 0 35 35" fill="none" xmlns="http://www.w3.org/2000/svg">
<path fill-rule="evenodd" clip-rule="evenodd" d="M23.743 17.8194C23.8449 17.921 23.9257 18.0417 23.9809 18.1746C24.036 18.3074 24.0644 18.4499 24.0644 18.5938C24.0644 18.7376 24.036 18.8801 23.9809 19.0129C23.9257 19.1458 23.8449 19.2665 23.743 19.3681L17.1805 25.9306C17.0789 26.0325 16.9582 26.1133 16.8254 26.1684C16.6925 26.2236 16.55 26.252 16.4062 26.252C16.2623 26.252 16.1198 26.2236 15.987 26.1684C15.8541 26.1133 15.7334 26.0325 15.6318 25.9306L12.3505 22.6494C12.2488 22.5477 12.1682 22.427 12.1131 22.2941C12.0581 22.1612 12.0298 22.0188 12.0298 21.875C12.0298 21.7312 12.0581 21.5888 12.1131 21.4559C12.1682 21.323 12.2488 21.2023 12.3505 21.1006C12.5559 20.8952 12.8345 20.7799 13.1249 20.7799C13.2687 20.7799 13.4111 20.8082 13.544 20.8632C13.6769 20.9183 13.7976 20.9989 13.8993 21.1006L16.4062 23.6097L22.1943 17.8194C22.2959 17.7175 22.4166 17.6367 22.5495 17.5816C22.6823 17.5264 22.8248 17.498 22.9687 17.498C23.1125 17.498 23.255 17.5264 23.3879 17.5816C23.5207 17.6367 23.6414 17.7175 23.743 17.8194Z" fill="white"/>
<path d="M17.5 2.1875C18.9504 2.1875 20.3414 2.76367 21.367 3.78926C22.3926 4.81485 22.9688 6.20585 22.9688 7.65625V8.75H12.0312V7.65625C12.0313 6.20585 12.6074 4.81485 13.633 3.78926C14.6586 2.76367 16.0496 2.1875 17.5 2.1875ZM25.1562 8.75V7.65625C25.1562 5.62569 24.3496 3.67829 22.9138 2.24246C21.478 0.806638 19.5306 0 17.5 0C15.4694 0 13.522 0.806638 12.0862 2.24246C10.6504 3.67829 9.84375 5.62569 9.84375 7.65625V8.75H2.1875V30.625C2.1875 31.7853 2.64844 32.8981 3.46891 33.7186C4.28938 34.5391 5.40218 35 6.5625 35H28.4375C29.5978 35 30.7106 34.5391 31.5311 33.7186C32.3516 32.8981 32.8125 31.7853 32.8125 30.625V8.75H25.1562ZM4.375 10.9375H30.625V30.625C30.625 31.2052 30.3945 31.7616 29.9843 32.1718C29.5741 32.582 29.0177 32.8125 28.4375 32.8125H6.5625C5.98234 32.8125 5.42594 32.582 5.0157 32.1718C4.60547 31.7616 4.375 31.2052 4.375 30.625V10.9375Z" fill="white"/>
</svg>
