<svg width="35" height="35" viewBox="0 0 35 35" fill="none" xmlns="http://www.w3.org/2000/svg">
<g clip-path="url(#clip0_63_210)">
<path d="M10.9377 24.0625C10.9377 24.6427 10.7073 25.199 10.297 25.6093C9.8868 26.0195 9.3304 26.25 8.75024 26.25C8.17008 26.25 7.61368 26.0195 7.20344 25.6093C6.7932 25.199 6.56274 24.6427 6.56274 24.0625C6.56274 23.4823 6.7932 22.9259 7.20344 22.5157C7.61368 22.1055 8.17008 21.875 8.75024 21.875C9.3304 21.875 9.8868 22.1055 10.297 22.5157C10.7073 22.9259 10.9377 23.4823 10.9377 24.0625ZM28.4377 24.0625C28.4377 24.6427 28.2073 25.199 27.797 25.6093C27.3868 26.0195 26.8304 26.25 26.2502 26.25C25.6701 26.25 25.1137 26.0195 24.7034 25.6093C24.2932 25.199 24.0627 24.6427 24.0627 24.0625C24.0627 23.4823 24.2932 22.9259 24.7034 22.5157C25.1137 22.1055 25.6701 21.875 26.2502 21.875C26.8304 21.875 27.3868 22.1055 27.797 22.5157C28.2073 22.9259 28.4377 23.4823 28.4377 24.0625ZM15.3127 21.875C14.7326 21.875 14.1762 22.1055 13.7659 22.5157C13.3557 22.9259 13.1252 23.4823 13.1252 24.0625C13.1252 24.6427 13.3557 25.199 13.7659 25.6093C14.1762 26.0195 14.7326 26.25 15.3127 26.25H19.6877C20.2679 26.25 20.8243 26.0195 21.2345 25.6093C21.6448 25.199 21.8752 24.6427 21.8752 24.0625C21.8752 23.4823 21.6448 22.9259 21.2345 22.5157C20.8243 22.1055 20.2679 21.875 19.6877 21.875H15.3127ZM17.5002 8.74999C13.3965 8.74999 10.0059 8.98843 7.54274 9.24436C7.27392 9.27247 7.02504 9.39912 6.84408 9.59987C6.66312 9.80063 6.56289 10.0613 6.56274 10.3316V18.1059C6.56289 18.3762 6.66312 18.6369 6.84408 18.8376C7.02504 19.0384 7.27392 19.165 7.54274 19.1931C10.0059 19.4491 13.3965 19.6875 17.5002 19.6875C21.604 19.6875 24.9946 19.4491 27.4577 19.1931C27.7265 19.165 27.9754 19.0384 28.1564 18.8376C28.3374 18.6369 28.4376 18.3762 28.4377 18.1059V10.3316C28.4376 10.0613 28.3374 9.80063 28.1564 9.59987C27.9754 9.39912 27.7265 9.27247 27.4577 9.24436C24.1493 8.90767 20.8257 8.74265 17.5002 8.74999ZM17.5002 6.56249C13.4818 6.56249 10.1655 6.79655 7.77024 7.04374C7.62488 7.06395 7.47695 7.0547 7.33524 7.01654C7.19354 6.97838 7.06096 6.9121 6.9454 6.82164C6.82985 6.73117 6.73368 6.61838 6.66263 6.48998C6.59158 6.36157 6.54709 6.22018 6.53182 6.07422C6.51655 5.92827 6.5308 5.78073 6.57374 5.6404C6.61668 5.50007 6.68741 5.36981 6.78174 5.25739C6.87607 5.14497 6.99205 5.05268 7.12279 4.98602C7.25353 4.91935 7.39635 4.87968 7.54274 4.86937C10.8511 4.53267 14.1748 4.36765 17.5002 4.37499C21.604 4.37499 24.9946 4.61343 27.4577 4.86937C27.6041 4.87968 27.7469 4.91935 27.8777 4.98602C28.0084 5.05268 28.1244 5.14497 28.2187 5.25739C28.3131 5.36981 28.3838 5.50007 28.4267 5.6404C28.4697 5.78073 28.4839 5.92827 28.4687 6.07422C28.4534 6.22018 28.4089 6.36157 28.3378 6.48998C28.2668 6.61838 28.1706 6.73117 28.0551 6.82164C27.9395 6.9121 27.8069 6.97838 27.6652 7.01654C27.5235 7.0547 27.3756 7.06395 27.2302 7.04374C23.9974 6.71537 20.7497 6.55473 17.5002 6.56249Z" fill="white"/>
<path d="M32.8125 17.5002C33.3927 17.5002 33.9491 17.2697 34.3593 16.8595C34.7695 16.4492 35 15.8928 35 15.3127V10.9377C35 10.3575 34.7695 9.80112 34.3593 9.39089C33.9491 8.98065 33.3927 8.75018 32.8125 8.75018V5.77519C32.8125 3.17644 30.9641 0.892685 28.2975 0.586435C24.7122 0.188835 21.1073 -0.00689022 17.5 0.00018514C12.9063 0.00018514 9.205 0.297685 6.7025 0.586435C4.03594 0.892685 2.1875 3.17644 2.1875 5.77519V8.75018C1.60734 8.75018 1.05094 8.98065 0.640704 9.39089C0.230468 9.80112 0 10.3575 0 10.9377L0 15.3127C0 15.8928 0.230468 16.4492 0.640704 16.8595C1.05094 17.2697 1.60734 17.5002 2.1875 17.5002V25.1564C2.1875 26.9458 3.04719 28.5339 4.375 29.5314V33.9064C4.375 34.1965 4.49023 34.4747 4.69535 34.6798C4.90047 34.885 5.17867 35.0002 5.46875 35.0002H9.84375C10.1338 35.0002 10.412 34.885 10.6171 34.6798C10.8223 34.4747 10.9375 34.1965 10.9375 33.9064V30.6252H24.0625V33.9064C24.0625 34.1965 24.1777 34.4747 24.3829 34.6798C24.588 34.885 24.8662 35.0002 25.1562 35.0002H29.5312C29.8213 35.0002 30.0995 34.885 30.3046 34.6798C30.5098 34.4747 30.625 34.1965 30.625 33.9064V29.5314C31.9528 28.5339 32.8125 26.9458 32.8125 25.1564V17.5002ZM17.5 2.18769C21.9975 2.18769 25.6156 2.48081 28.0481 2.75862C29.5269 2.92925 30.625 4.20237 30.625 5.77519V25.1564C30.625 26.0267 30.2793 26.8613 29.6639 27.4766C29.0486 28.092 28.214 28.4377 27.3438 28.4377H7.65625C6.78601 28.4377 5.95141 28.092 5.33606 27.4766C4.7207 26.8613 4.375 26.0267 4.375 25.1564V5.77519C4.375 4.20019 5.47312 2.92925 6.95187 2.75862C10.4544 2.37087 13.976 2.18026 17.5 2.18769Z" fill="white"/>
</g>
<defs>
<clipPath id="clip0_63_210">
<rect width="35" height="35" fill="white"/>
</clipPath>
</defs>
</svg>
