<svg width="35" height="35" viewBox="0 0 35 35" fill="none" xmlns="http://www.w3.org/2000/svg">
<g clip-path="url(#clip0_63_244)">
<path d="M31.7188 6.5625C32.0088 6.5625 32.287 6.67773 32.4921 6.88285C32.6973 7.08797 32.8125 7.36617 32.8125 7.65625V27.3438C32.8125 27.6338 32.6973 27.912 32.4921 28.1171C32.287 28.3223 32.0088 28.4375 31.7188 28.4375H3.28125C2.99117 28.4375 2.71297 28.3223 2.50785 28.1171C2.30273 27.912 2.1875 27.6338 2.1875 27.3438V7.65625C2.1875 7.36617 2.30273 7.08797 2.50785 6.88285C2.71297 6.67773 2.99117 6.5625 3.28125 6.5625H31.7188ZM3.28125 4.375C2.41101 4.375 1.57641 4.7207 0.961056 5.33606C0.345702 5.95141 0 6.78601 0 7.65625L0 27.3438C0 28.214 0.345702 29.0486 0.961056 29.6639C1.57641 30.2793 2.41101 30.625 3.28125 30.625H31.7188C32.589 30.625 33.4236 30.2793 34.0389 29.6639C34.6543 29.0486 35 28.214 35 27.3438V7.65625C35 6.78601 34.6543 5.95141 34.0389 5.33606C33.4236 4.7207 32.589 4.375 31.7188 4.375H3.28125Z" fill="#ffffff"/>
<path d="M15.3124 12.0313C15.3124 11.7412 15.4277 11.463 15.6328 11.2579C15.8379 11.0527 16.1161 10.9375 16.4062 10.9375H27.3437C27.6337 10.9375 27.9119 11.0527 28.1171 11.2579C28.3222 11.463 28.4374 11.7412 28.4374 12.0313C28.4374 12.3213 28.3222 12.5995 28.1171 12.8046C27.9119 13.0098 27.6337 13.125 27.3437 13.125H16.4062C16.1161 13.125 15.8379 13.0098 15.6328 12.8046C15.4277 12.5995 15.3124 12.3213 15.3124 12.0313ZM12.0399 10.1631C12.1418 10.2647 12.2226 10.3854 12.2777 10.5183C12.3329 10.6512 12.3612 10.7936 12.3612 10.9375C12.3612 11.0814 12.3329 11.2238 12.2777 11.3567C12.2226 11.4896 12.1418 11.6103 12.0399 11.7119L8.75867 14.9931C8.65707 15.095 8.53637 15.1758 8.40349 15.2309C8.27061 15.2861 8.12816 15.3145 7.98429 15.3145C7.84043 15.3145 7.69797 15.2861 7.56509 15.2309C7.43221 15.1758 7.31152 15.095 7.20992 14.9931L6.11617 13.8994C6.01447 13.7977 5.93381 13.677 5.87877 13.5441C5.82374 13.4112 5.79541 13.2688 5.79541 13.125C5.79541 12.8346 5.91079 12.556 6.11617 12.3506C6.32154 12.1452 6.6001 12.0299 6.89054 12.0299C7.18099 12.0299 7.45954 12.1452 7.66492 12.3506L7.98429 12.6722L10.4912 10.1631C10.5928 10.0613 10.7135 9.98046 10.8463 9.92532C10.9792 9.87018 11.1217 9.8418 11.2655 9.8418C11.4094 9.8418 11.5519 9.87018 11.6847 9.92532C11.8176 9.98046 11.9383 10.0613 12.0399 10.1631ZM15.3124 20.7813C15.3124 20.4912 15.4277 20.213 15.6328 20.0079C15.8379 19.8027 16.1161 19.6875 16.4062 19.6875H27.3437C27.6337 19.6875 27.9119 19.8027 28.1171 20.0079C28.3222 20.213 28.4374 20.4912 28.4374 20.7813C28.4374 21.0713 28.3222 21.3495 28.1171 21.5547C27.9119 21.7598 27.6337 21.875 27.3437 21.875H16.4062C16.1161 21.875 15.8379 21.7598 15.6328 21.5547C15.4277 21.3495 15.3124 21.0713 15.3124 20.7813ZM12.0399 18.9131C12.1418 19.0147 12.2226 19.1354 12.2777 19.2683C12.3329 19.4012 12.3612 19.5436 12.3612 19.6875C12.3612 19.8314 12.3329 19.9738 12.2777 20.1067C12.2226 20.2396 12.1418 20.3603 12.0399 20.4619L8.75867 23.7431C8.65707 23.845 8.53637 23.9258 8.40349 23.9809C8.27061 24.0361 8.12816 24.0645 7.98429 24.0645C7.84043 24.0645 7.69797 24.0361 7.56509 23.9809C7.43221 23.9258 7.31152 23.845 7.20992 23.7431L6.11617 22.6494C6.01447 22.5477 5.93381 22.427 5.87877 22.2941C5.82374 22.1612 5.79541 22.0188 5.79541 21.875C5.79541 21.7312 5.82374 21.5888 5.87877 21.4559C5.93381 21.323 6.01447 21.2023 6.11617 21.1006C6.21786 20.9989 6.33859 20.9183 6.47145 20.8632C6.60432 20.8082 6.74673 20.7799 6.89054 20.7799C7.03436 20.7799 7.17676 20.8082 7.30963 20.8632C7.4425 20.9183 7.56322 20.9989 7.66492 21.1006L7.98429 21.4222L10.4912 18.9131C10.5928 18.8113 10.7135 18.7305 10.8463 18.6753C10.9792 18.6202 11.1217 18.5918 11.2655 18.5918C11.4094 18.5918 11.5519 18.6202 11.6847 18.6753C11.8176 18.7305 11.9383 18.8113 12.0399 18.9131Z" fill="#ffffff"/>
</g>
<defs>
<clipPath id="clip0_63_244">
<rect width="35" height="35" fill="white"/>
</clipPath>
</defs>
</svg>
