<svg width="35" height="34" viewBox="0 0 35 34" fill="none" xmlns="http://www.w3.org/2000/svg">
<g clip-path="url(#clip0_15_509)">
<path d="M31.7188 5.5625C32.0088 5.5625 32.287 5.67773 32.4921 5.88285C32.6973 6.08797 32.8125 6.36617 32.8125 6.65625V26.3438C32.8125 26.6338 32.6973 26.912 32.4921 27.1171C32.287 27.3223 32.0088 27.4375 31.7188 27.4375H3.28125C2.99117 27.4375 2.71297 27.3223 2.50785 27.1171C2.30273 26.912 2.1875 26.6338 2.1875 26.3438V6.65625C2.1875 6.36617 2.30273 6.08797 2.50785 5.88285C2.71297 5.67773 2.99117 5.5625 3.28125 5.5625H31.7188ZM3.28125 3.375C2.41101 3.375 1.57641 3.7207 0.961056 4.33606C0.345702 4.95141 0 5.78601 0 6.65625L0 26.3438C0 27.214 0.345702 28.0486 0.961056 28.6639C1.57641 29.2793 2.41101 29.625 3.28125 29.625H31.7188C32.589 29.625 33.4236 29.2793 34.0389 28.6639C34.6543 28.0486 35 27.214 35 26.3438V6.65625C35 5.78601 34.6543 4.95141 34.0389 4.33606C33.4236 3.7207 32.589 3.375 31.7188 3.375H3.28125Z" fill="black"/>
<path d="M15.3125 11.0313C15.3125 10.7412 15.4277 10.463 15.6328 10.2579C15.8379 10.0527 16.1161 9.9375 16.4062 9.9375H27.3437C27.6338 9.9375 27.912 10.0527 28.1171 10.2579C28.3222 10.463 28.4375 10.7412 28.4375 11.0313C28.4375 11.3213 28.3222 11.5995 28.1171 11.8046C27.912 12.0098 27.6338 12.125 27.3437 12.125H16.4062C16.1161 12.125 15.8379 12.0098 15.6328 11.8046C15.4277 11.5995 15.3125 11.3213 15.3125 11.0313ZM12.04 9.16313C12.1418 9.26473 12.2226 9.38542 12.2778 9.5183C12.3329 9.65118 12.3613 9.79364 12.3613 9.9375C12.3613 10.0814 12.3329 10.2238 12.2778 10.3567C12.2226 10.4896 12.1418 10.6103 12.04 10.7119L8.75873 13.9931C8.65713 14.095 8.53643 14.1758 8.40355 14.2309C8.27067 14.2861 8.12822 14.3145 7.98435 14.3145C7.84049 14.3145 7.69803 14.2861 7.56515 14.2309C7.43227 14.1758 7.31158 14.095 7.20998 13.9931L6.11623 12.8994C6.01454 12.7977 5.93387 12.677 5.87883 12.5441C5.8238 12.4112 5.79547 12.2688 5.79547 12.125C5.79547 11.8346 5.91085 11.556 6.11623 11.3506C6.32161 11.1452 6.60016 11.0299 6.8906 11.0299C7.18105 11.0299 7.4596 11.1452 7.66498 11.3506L7.98435 11.6722L10.4912 9.16313C10.5928 9.06127 10.7135 8.98046 10.8464 8.92532C10.9793 8.87018 11.1217 8.8418 11.2656 8.8418C11.4095 8.8418 11.5519 8.87018 11.6848 8.92532C11.8177 8.98046 11.9384 9.06127 12.04 9.16313ZM15.3125 19.7813C15.3125 19.4912 15.4277 19.213 15.6328 19.0079C15.8379 18.8027 16.1161 18.6875 16.4062 18.6875H27.3437C27.6338 18.6875 27.912 18.8027 28.1171 19.0079C28.3222 19.213 28.4375 19.4912 28.4375 19.7813C28.4375 20.0713 28.3222 20.3495 28.1171 20.5547C27.912 20.7598 27.6338 20.875 27.3437 20.875H16.4062C16.1161 20.875 15.8379 20.7598 15.6328 20.5547C15.4277 20.3495 15.3125 20.0713 15.3125 19.7813ZM12.04 17.9131C12.1418 18.0147 12.2226 18.1354 12.2778 18.2683C12.3329 18.4012 12.3613 18.5436 12.3613 18.6875C12.3613 18.8314 12.3329 18.9738 12.2778 19.1067C12.2226 19.2396 12.1418 19.3603 12.04 19.4619L8.75873 22.7431C8.65713 22.845 8.53643 22.9258 8.40355 22.9809C8.27067 23.0361 8.12822 23.0645 7.98435 23.0645C7.84049 23.0645 7.69803 23.0361 7.56515 22.9809C7.43227 22.9258 7.31158 22.845 7.20998 22.7431L6.11623 21.6494C6.01454 21.5477 5.93387 21.427 5.87883 21.2941C5.8238 21.1612 5.79547 21.0188 5.79547 20.875C5.79547 20.7312 5.8238 20.5888 5.87883 20.4559C5.93387 20.323 6.01454 20.2023 6.11623 20.1006C6.21792 19.9989 6.33865 19.9183 6.47151 19.8632C6.60438 19.8082 6.74679 19.7799 6.8906 19.7799C7.03442 19.7799 7.17682 19.8082 7.30969 19.8632C7.44256 19.9183 7.56329 19.9989 7.66498 20.1006L7.98435 20.4222L10.4912 17.9131C10.5928 17.8113 10.7135 17.7305 10.8464 17.6753C10.9793 17.6202 11.1217 17.5918 11.2656 17.5918C11.4095 17.5918 11.5519 17.6202 11.6848 17.6753C11.8177 17.7305 11.9384 17.8113 12.04 17.9131Z" fill="black"/>
</g>
<defs>
<clipPath id="clip0_15_509">
<rect width="35" height="35" fill="white" transform="translate(0 -1)"/>
</clipPath>
</defs>
</svg>
