<svg width="35" height="34" viewBox="0 0 35 34" fill="none" xmlns="http://www.w3.org/2000/svg">
<g clip-path="url(#clip0_15_506)">
<path d="M6.57625e-06 4.46875C6.57625e-06 3.59851 0.345709 2.76391 0.961062 2.14856C1.57642 1.5332 2.41101 1.1875 3.28126 1.1875H27.3438C28.214 1.1875 29.0486 1.5332 29.6639 2.14856C30.2793 2.76391 30.625 3.59851 30.625 4.46875V27.4987C30.625 28.155 30.5156 28.9294 30.1044 29.625H31.7188C32.0088 29.625 32.287 29.5098 32.4922 29.3046C32.6973 29.0995 32.8125 28.8213 32.8125 28.5312V8.84375C32.8125 8.55367 32.9277 8.27547 33.1329 8.07035C33.338 7.86523 33.6162 7.75 33.9063 7.75C34.1963 7.75 34.4745 7.86523 34.6797 8.07035C34.8848 8.27547 35 8.55367 35 8.84375V28.5312C35 29.4015 34.6543 30.2361 34.039 30.8514C33.4236 31.4668 32.589 31.8125 31.7188 31.8125H3.27469C2.8441 31.8125 2.41774 31.7276 2.02001 31.5626C1.62228 31.3976 1.26099 31.1558 0.956817 30.851C0.652648 30.5463 0.411573 30.1845 0.247391 29.7864C0.0832092 29.3884 -0.000856331 28.9618 6.57625e-06 28.5312V4.46875ZM26.25 29.625C27.0594 29.625 27.6806 29.1634 28.1159 28.6603C28.3172 28.4284 28.4375 28.05 28.4375 27.4987V4.46875C28.4375 4.17867 28.3223 3.90047 28.1172 3.69535C27.912 3.49023 27.6338 3.375 27.3438 3.375H3.28126C2.99118 3.375 2.71298 3.49023 2.50786 3.69535C2.30274 3.90047 2.18751 4.17867 2.18751 4.46875V28.5312C2.18751 29.1394 2.67532 29.625 3.27469 29.625H26.25Z" fill="black"/>
<path d="M4.375 5.5625H26.25V9.9375H4.375V5.5625ZM4.375 12.125H13.125V18.6875H4.375V12.125ZM4.375 20.875H13.125V23.0625H4.375V20.875ZM4.375 25.25H13.125V27.4375H4.375V25.25ZM15.3125 12.125H19.6875V14.3125H15.3125V12.125ZM21.875 12.125H26.25V14.3125H21.875V12.125ZM15.3125 16.5H19.6875V18.6875H15.3125V16.5ZM21.875 16.5H26.25V18.6875H21.875V16.5ZM15.3125 20.875H19.6875V23.0625H15.3125V20.875ZM21.875 20.875H26.25V23.0625H21.875V20.875ZM15.3125 25.25H19.6875V27.4375H15.3125V25.25ZM21.875 25.25H26.25V27.4375H21.875V25.25Z" fill="black"/>
</g>
<defs>
<clipPath id="clip0_15_506">
<rect width="35" height="35" fill="white" transform="translate(0 -1)"/>
</clipPath>
</defs>
</svg>
