<svg width="35" height="34" viewBox="0 0 35 34" fill="none" xmlns="http://www.w3.org/2000/svg">
<g clip-path="url(#clip0_15_500)">
<path fill-rule="evenodd" clip-rule="evenodd" d="M22.6494 12.4444C22.7512 12.546 22.832 12.6667 22.8872 12.7996C22.9423 12.9324 22.9707 13.0749 22.9707 13.2188C22.9707 13.3626 22.9423 13.5051 22.8872 13.638C22.832 13.7708 22.7512 13.8915 22.6494 13.9931L16.0869 20.5556C15.9853 20.6575 15.8646 20.7383 15.7317 20.7934C15.5988 20.8486 15.4563 20.877 15.3125 20.877C15.1686 20.877 15.0262 20.8486 14.8933 20.7934C14.7604 20.7383 14.6397 20.6575 14.5381 20.5556L11.2569 17.2744C11.1552 17.1727 11.0745 17.052 11.0195 16.9191C10.9644 16.7862 10.9361 16.6438 10.9361 16.5C10.9361 16.3562 10.9644 16.2138 11.0195 16.0809C11.0745 15.948 11.1552 15.8273 11.2569 15.7256C11.3585 15.6239 11.4793 15.5433 11.6121 15.4882C11.745 15.4332 11.8874 15.4049 12.0312 15.4049C12.175 15.4049 12.3174 15.4332 12.4503 15.4882C12.5832 15.5433 12.7039 15.6239 12.8056 15.7256L15.3125 18.2347L21.1006 12.4444C21.2022 12.3425 21.3229 12.2617 21.4558 12.2066C21.5887 12.1514 21.7311 12.123 21.875 12.123C22.0188 12.123 22.1613 12.1514 22.2942 12.2066C22.4271 12.2617 22.5478 12.3425 22.6494 12.4444Z" fill="black"/>
<path d="M22.4722 4.4972L20.4575 2.4322L22.0216 0.905322L23.3822 2.29876L25.3291 2.2747C26.1718 2.26472 27.008 2.42336 27.7886 2.74126C28.5691 3.05917 29.2782 3.52994 29.8741 4.12589C30.4701 4.72183 30.9408 5.43092 31.2588 6.21146C31.5767 6.99199 31.7353 7.82821 31.7253 8.67095L31.7034 10.6178L33.0947 11.9784C33.6973 12.5673 34.1761 13.2706 34.503 14.0471C34.8299 14.8235 34.9982 15.6575 34.9982 16.5C34.9982 17.3425 34.8299 18.1765 34.503 18.953C34.1761 19.7295 33.6973 20.4328 33.0947 21.0216L31.7013 22.3822L31.7253 24.3291C31.7353 25.1718 31.5767 26.008 31.2588 26.7886C30.9408 27.5691 30.4701 28.2782 29.8741 28.8741C29.2782 29.4701 28.5691 29.9408 27.7886 30.2588C27.008 30.5767 26.1718 30.7353 25.3291 30.7253L23.3822 30.7034L22.0216 32.0947C21.4328 32.6973 20.7295 33.1761 19.953 33.503C19.1765 33.8299 18.3425 33.9982 17.5 33.9982C16.6575 33.9982 15.8235 33.8299 15.0471 33.503C14.2706 33.1761 13.5673 32.6973 12.9784 32.0947L11.6178 30.7013L9.67095 30.7253C8.82821 30.7353 7.99199 30.5767 7.21146 30.2588C6.43092 29.9408 5.72183 29.4701 5.12589 28.8741C4.52994 28.2782 4.05917 27.5691 3.74126 26.7886C3.42336 26.008 3.26472 25.1718 3.2747 24.3291L3.29657 22.3822L1.90532 21.0216C1.30275 20.4328 0.823955 19.7295 0.49706 18.953C0.170165 18.1765 0.00177002 17.3425 0.00177002 16.5C0.00177002 15.6575 0.170165 14.8235 0.49706 14.0471C0.823955 13.2706 1.30275 12.5673 1.90532 11.9784L3.29876 10.6178L3.2747 8.67095C3.26472 7.82821 3.42336 6.99199 3.74126 6.21146C4.05917 5.43092 4.52994 4.72183 5.12589 4.12589C5.72183 3.52994 6.43092 3.05917 7.21146 2.74126C7.99199 2.42336 8.82821 2.26472 9.67095 2.2747L11.6178 2.29657L12.9784 0.905322C13.5673 0.302754 14.2706 -0.176045 15.0471 -0.50294C15.8235 -0.829835 16.6575 -0.99823 17.5 -0.99823C18.3425 -0.99823 19.1765 -0.829835 19.953 -0.50294C20.7295 -0.176045 21.4328 0.302754 22.0216 0.905322L20.4575 2.4322C20.0724 2.03798 19.6124 1.72473 19.1045 1.51086C18.5966 1.29698 18.0511 1.18681 17.5 1.18681C16.9489 1.18681 16.4034 1.29698 15.8955 1.51086C15.3876 1.72473 14.9276 2.03798 14.5425 2.4322L12.53 4.4972L9.64251 4.4622C9.09165 4.45604 8.54511 4.56003 8.03501 4.76807C7.5249 4.97611 7.06152 5.28399 6.67208 5.67363C6.28264 6.06328 5.975 6.52682 5.76723 7.03704C5.55946 7.54725 5.45575 8.09384 5.4622 8.6447L5.4972 11.5278L3.4322 13.5425C3.03798 13.9276 2.72473 14.3876 2.51086 14.8955C2.29698 15.4034 2.18681 15.9489 2.18681 16.5C2.18681 17.0511 2.29698 17.5966 2.51086 18.1045C2.72473 18.6124 3.03798 19.0724 3.4322 19.4575L5.4972 21.47L5.4622 24.3575C5.45604 24.9084 5.56003 25.4549 5.76807 25.965C5.97611 26.4751 6.28399 26.9385 6.67363 27.3279C7.06328 27.7174 7.52682 28.025 8.03704 28.2328C8.54725 28.4406 9.09384 28.5443 9.6447 28.5378L12.5278 28.5028L14.5425 30.5678C14.9276 30.962 15.3876 31.2753 15.8955 31.4892C16.4034 31.703 16.9489 31.8132 17.5 31.8132C18.0511 31.8132 18.5966 31.703 19.1045 31.4892C19.6124 31.2753 20.0724 30.962 20.4575 30.5678L22.47 28.5028L25.3575 28.5378C25.9084 28.544 26.4549 28.44 26.965 28.2319C27.4751 28.0239 27.9385 27.716 28.3279 27.3264C28.7174 26.9367 29.025 26.4732 29.2328 25.963C29.4406 25.4528 29.5443 24.9062 29.5378 24.3553L29.5028 21.4722L31.5678 19.4575C31.962 19.0724 32.2753 18.6124 32.4892 18.1045C32.703 17.5966 32.8132 17.0511 32.8132 16.5C32.8132 15.9489 32.703 15.4034 32.4892 14.8955C32.2753 14.3876 31.962 13.9276 31.5678 13.5425L29.5028 11.53L29.5378 8.64251C29.544 8.09165 29.44 7.54511 29.2319 7.03501C29.0239 6.5249 28.716 6.06152 28.3264 5.67208C27.9367 5.28264 27.4732 4.975 26.963 4.76723C26.4528 4.55946 25.9062 4.45575 25.3553 4.4622L22.4722 4.4972Z" fill="black"/>
</g>
<defs>
<clipPath id="clip0_15_500">
<rect width="35" height="35" fill="white" transform="translate(0 -1)"/>
</clipPath>
</defs>
</svg>
