<svg width="35" height="35" viewBox="0 0 35 35" fill="none" xmlns="http://www.w3.org/2000/svg">
<path d="M29.4044 5.59563C29.5314 5.72258 29.6321 5.87332 29.7008 6.03922C29.7696 6.20512 29.8049 6.38293 29.8049 6.5625C29.8049 6.74207 29.7696 6.91988 29.7008 7.08578C29.6321 7.25168 29.5314 7.40242 29.4044 7.52937L7.52937 29.4044C7.4024 29.5313 7.25167 29.6321 7.08577 29.7008C6.91987 29.7695 6.74207 29.8049 6.5625 29.8049C6.38293 29.8049 6.20513 29.7695 6.03923 29.7008C5.87333 29.6321 5.7226 29.5313 5.59563 29.4044C5.46865 29.2774 5.36793 29.1267 5.29922 28.9608C5.2305 28.7949 5.19513 28.6171 5.19513 28.4375C5.19513 28.2579 5.2305 28.0801 5.29922 27.9142C5.36793 27.7483 5.46865 27.5976 5.59563 27.4706L27.4706 5.59563C27.5976 5.46863 27.7483 5.36789 27.9142 5.29916C28.0801 5.23043 28.2579 5.19506 28.4375 5.19506C28.6171 5.19506 28.7949 5.23043 28.9608 5.29916C29.1267 5.36789 29.2774 5.46863 29.4044 5.59563ZM9.84375 13.125C8.97351 13.125 8.13891 12.7793 7.52356 12.1639C6.9082 11.5486 6.5625 10.714 6.5625 9.84375C6.5625 8.97351 6.9082 8.13891 7.52356 7.52356C8.13891 6.9082 8.97351 6.5625 9.84375 6.5625C10.714 6.5625 11.5486 6.9082 12.1639 7.52356C12.7793 8.13891 13.125 8.97351 13.125 9.84375C13.125 10.714 12.7793 11.5486 12.1639 12.1639C11.5486 12.7793 10.714 13.125 9.84375 13.125ZM9.84375 15.3125C11.2942 15.3125 12.6852 14.7363 13.7107 13.7107C14.7363 12.6852 15.3125 11.2942 15.3125 9.84375C15.3125 8.39335 14.7363 7.00235 13.7107 5.97676C12.6852 4.95117 11.2942 4.375 9.84375 4.375C8.39335 4.375 7.00235 4.95117 5.97676 5.97676C4.95117 7.00235 4.375 8.39335 4.375 9.84375C4.375 11.2942 4.95117 12.6852 5.97676 13.7107C7.00235 14.7363 8.39335 15.3125 9.84375 15.3125ZM25.1562 28.4375C24.286 28.4375 23.4514 28.0918 22.8361 27.4764C22.2207 26.8611 21.875 26.0265 21.875 25.1562C21.875 24.286 22.2207 23.4514 22.8361 22.8361C23.4514 22.2207 24.286 21.875 25.1562 21.875C26.0265 21.875 26.8611 22.2207 27.4764 22.8361C28.0918 23.4514 28.4375 24.286 28.4375 25.1562C28.4375 26.0265 28.0918 26.8611 27.4764 27.4764C26.8611 28.0918 26.0265 28.4375 25.1562 28.4375ZM25.1562 30.625C26.6067 30.625 27.9977 30.0488 29.0232 29.0232C30.0488 27.9977 30.625 26.6067 30.625 25.1562C30.625 23.7058 30.0488 22.3148 29.0232 21.2893C27.9977 20.2637 26.6067 19.6875 25.1562 19.6875C23.7058 19.6875 22.3148 20.2637 21.2893 21.2893C20.2637 22.3148 19.6875 23.7058 19.6875 25.1562C19.6875 26.6067 20.2637 27.9977 21.2893 29.0232C22.3148 30.0488 23.7058 30.625 25.1562 30.625Z" fill="white"/>
</svg>
