<svg width="22" height="23" viewBox="0 0 22 23" fill="#ffffff" xmlns="http://www.w3.org/2000/svg">
<g clip-path="url(#clip0_8_321)">
<path d="M3.94073 21.3469C3.83348 21.9851 4.43573 22.4839 4.96648 22.1993L11.0027 18.9563L17.0376 22.1993C17.5684 22.4839 18.1706 21.9851 18.0634 21.3483L16.9221 14.5489L21.7649 9.72468C22.2186 9.27331 21.9849 8.44818 21.3771 8.35906L14.6424 7.35856L11.6394 1.1385C11.5821 1.01241 11.4919 0.905884 11.3791 0.831292C11.2663 0.756699 11.1355 0.717102 11.002 0.717102C10.8686 0.717102 10.7378 0.756699 10.625 0.831292C10.5122 0.905884 10.4219 1.01241 10.3647 1.1385L7.36173 7.36L0.62698 8.3605C0.0206045 8.44962 -0.21452 9.27475 0.237855 9.72612L5.08198 14.5504L3.94073 21.3497V21.3469ZM10.6851 17.3693L5.61685 20.0919L6.5711 14.4037C6.59407 14.2728 6.58562 14.138 6.54651 14.0113C6.5074 13.8846 6.43884 13.77 6.34698 13.6778L2.35123 9.69593L7.92273 8.86793C8.03791 8.84914 8.14709 8.80174 8.24112 8.7297C8.33515 8.65766 8.41127 8.56309 8.46311 8.45393L11 3.19556L13.5396 8.45393C13.5914 8.56309 13.6676 8.65766 13.7616 8.7297C13.8556 8.80174 13.9648 8.84914 14.08 8.86793L19.6515 9.6945L15.6557 13.6764C15.5637 13.7687 15.495 13.8835 15.4558 14.0105C15.4167 14.1374 15.4084 14.2726 15.4316 14.4037L16.3859 20.0919L11.3176 17.3693C11.2197 17.3161 11.111 17.2884 11.0007 17.2884C10.8903 17.2884 10.783 17.3161 10.6851 17.3693Z" fill="#F9D32D"/>
</g>
<defs>
<clipPath id="clip0_8_321">
<rect width="35" height="35" fill="#ffffff"/>
</clipPath>
</defs>
</svg>
